<svg width="160" height="160" viewBox="0 0 160 160" fill="none" xmlns="http://www.w3.org/2000/svg">
<path d="M80 150C118.66 150 150 118.66 150 80C150 41.3401 118.66 10 80 10C41.3401 10 10 41.3401 10 80C10 118.66 41.3401 150 80 150Z" stroke="black" stroke-width="6"/>
<path d="M80 123C103.748 123 123 103.748 123 80C123 56.2518 103.748 37 80 37C56.2518 37 37 56.2518 37 80C37 103.748 56.2518 123 80 123Z" stroke="black" stroke-width="3" stroke-dasharray="5 5"/>
<path d="M80 88C84.4183 88 88 84.4183 88 80C88 75.5817 84.4183 72 80 72C75.5817 72 72 75.5817 72 80C72 84.4183 75.5817 88 80 88Z" fill="black"/>
</svg>
